<svg xmlns="http://www.w3.org/2000/svg" viewBox="0 0 48 48" fill="none" aria-hidden="true">
  <defs>
    <linearGradient id="phoenix-grad" x1="0%" y1="0%" x2="100%" y2="100%">
      <stop offset="0%" style="stop-color:#f59e0b"/>
      <stop offset="50%" style="stop-color:#ea580c"/>
      <stop offset="100%" style="stop-color:#dc2626"/>
    </linearGradient>
  </defs>
  <!-- Phoenix body rising / flame shape -->
  <path d="M24 40c-4-6-8-12-8-20 0-6 3-12 8-16 5 4 8 10 8 16 0 8-4 14-8 20z" fill="url(#phoenix-grad)" opacity="0.95"/>
  <path d="M20 26l4-8 4 8-4 4-4-4z" fill="rgba(255,255,255,0.4)"/>
  <!-- Wing accents -->
  <path d="M16 22c-2 0-4 2-4 4s2 4 4 4" stroke="url(#phoenix-grad)" stroke-width="1.5" fill="none" stroke-linecap="round"/>
  <path d="M32 22c2 0 4 2 4 4s-2 4-4 4" stroke="url(#phoenix-grad)" stroke-width="1.5" fill="none" stroke-linecap="round"/>
  <!-- Head -->
  <circle cx="24" cy="14" r="3" fill="url(#phoenix-grad)"/>
</svg>
